<svg width="35" height="35" viewBox="0 0 35 35" fill="none" xmlns="http://www.w3.org/2000/svg">
<path d="M7.34301 19.1532C7.30919 18.815 7.29188 18.472 7.29188 18.125C7.29188 17.778 7.30919 17.435 7.34301 17.0968L4.67529 14.0884L7.59196 9.03659L11.5312 9.8427C12.0858 9.44228 12.6823 9.0962 13.3128 8.81226L14.5835 5H20.4169L21.6876 8.81226C22.3181 9.0962 22.9146 9.44228 23.4692 9.8427L27.4085 9.03659L30.3251 14.0884L27.6574 17.0968C27.6912 17.435 27.7085 17.778 27.7085 18.125C27.7085 18.472 27.6912 18.815 27.6574 19.1532L30.3251 22.1616L27.4085 27.2134L23.4692 26.4073C22.9146 26.8077 22.3181 27.1538 21.6876 27.4377L20.4169 31.25H14.5835L13.3128 27.4377C12.6823 27.1538 12.0858 26.8077 11.5312 26.4073L7.59196 27.2134L4.67529 22.1616L7.34301 19.1532Z" stroke="#708090" stroke-width="2" stroke-linecap="round" stroke-linejoin="round"/>
<path d="M17.4998 19.5833C18.3053 19.5833 18.9582 18.9304 18.9582 18.125C18.9582 17.3196 18.3053 16.6667 17.4998 16.6667C16.6944 16.6667 16.0415 17.3196 16.0415 18.125C16.0415 18.9304 16.6944 19.5833 17.4998 19.5833Z" stroke="#708090" stroke-width="3" stroke-linecap="round" stroke-linejoin="round"/>
</svg>
