<svg width="35" height="21" viewBox="0 0 35 21" fill="none" xmlns="http://www.w3.org/2000/svg">
<path d="M18.6549 15.9347C19.3727 15.6746 19.9611 15.434 20.4199 15.213C21.223 14.8262 21.9977 14.3878 22.6043 13.7813C23.6981 12.6875 20.4168 12.6875 20.4168 7.21875C20.4168 3.57328 21.8748 1.75 24.7918 1.75C27.7089 1.75 29.1668 3.57328 29.1668 7.21875C29.1668 12.6875 25.8856 12.6875 26.9793 13.7813C29.1668 15.9688 33.5418 15.9688 33.5418 19.25M1.4585 19.25C1.4585 15.9688 5.8335 15.9688 8.021 13.7813C9.11475 12.6875 5.8335 12.6875 5.8335 7.21875C5.8335 3.57328 7.29146 1.75 10.2085 1.75C13.1255 1.75 14.5835 3.57328 14.5835 7.21875C14.5835 12.6875 11.3022 12.6875 12.396 13.7813C14.5835 15.9688 18.9585 15.9688 18.9585 19.25H1.4585Z" stroke="#708090" stroke-width="2" stroke-linecap="round" stroke-linejoin="round"/>
</svg>
