<svg width="376" height="270" viewBox="0 0 376 270" fill="none" xmlns="http://www.w3.org/2000/svg">
<g opacity="0.09">
<path d="M80.706 107.791C95.5387 107.791 107.563 95.7412 107.563 80.8769C107.563 66.0127 95.5387 53.9628 80.706 53.9628C65.8732 53.9628 53.8489 66.0127 53.8489 80.8769C53.8489 95.7412 65.8732 107.791 80.706 107.791Z" fill="#97B0F6"/>
<path d="M80.8396 96.8111C89.5474 96.8111 96.6065 89.7371 96.6065 81.0108C96.6065 72.2845 89.5474 65.2104 80.8396 65.2104C72.1318 65.2104 65.0728 72.2845 65.0728 81.0108C65.0728 89.7371 72.1318 96.8111 80.8396 96.8111Z" fill="#2D374C"/>
<path d="M80.8397 89.3126C85.415 89.3126 89.124 85.5958 89.124 81.0108C89.124 76.4258 85.415 72.7089 80.8397 72.7089C76.2644 72.7089 72.5554 76.4258 72.5554 81.0108C72.5554 85.5958 76.2644 89.3126 80.8397 89.3126Z" fill="#CDD4ED"/>
<path d="M188 107.791C202.833 107.791 214.857 95.7412 214.857 80.8769C214.857 66.0127 202.833 53.9628 188 53.9628C173.167 53.9628 161.143 66.0127 161.143 80.8769C161.143 95.7412 173.167 107.791 188 107.791Z" fill="#DEECF3"/>
<path d="M188.134 96.8111C196.842 96.8111 203.901 89.7371 203.901 81.0108C203.901 72.2845 196.842 65.2104 188.134 65.2104C179.426 65.2104 172.367 72.2845 172.367 81.0108C172.367 89.7371 179.426 96.8111 188.134 96.8111Z" fill="#2D374C"/>
<path d="M188.134 89.3126C192.709 89.3126 196.418 85.5958 196.418 81.0108C196.418 76.4258 192.709 72.7089 188.134 72.7089C183.559 72.7089 179.85 76.4258 179.85 81.0108C179.85 85.5958 183.559 89.3126 188.134 89.3126Z" fill="#F1E3CF"/>
<path d="M295.428 161.619C310.261 161.619 322.285 173.669 322.285 188.533C322.285 203.398 310.261 215.448 295.428 215.448C280.596 215.448 268.571 203.398 268.571 188.533C268.571 173.669 280.596 161.619 295.428 161.619Z" fill="#DEECF3"/>
<path d="M295.562 172.599C304.27 172.599 311.329 179.673 311.329 188.399C311.329 197.126 304.27 204.2 295.562 204.2C286.854 204.2 279.795 197.126 279.795 188.399C279.795 179.673 286.854 172.599 295.562 172.599Z" fill="#2D374C"/>
<path d="M295.562 180.098C300.137 180.098 303.846 183.815 303.846 188.399C303.846 192.984 300.137 196.701 295.562 196.701C290.987 196.701 287.278 192.984 287.278 188.399C287.278 183.815 290.987 180.098 295.562 180.098Z" fill="#F1E3CF"/>
<path d="M242.11 94.4993C242.11 101.804 248.019 107.725 255.307 107.725C262.596 107.725 268.505 101.804 268.505 94.4993C268.505 87.195 262.596 81.2737 255.307 81.2737C248.019 81.2737 242.11 87.195 242.11 94.4993Z" fill="#97B0F6"/>
<path d="M214.923 94.4993C214.923 101.804 220.832 107.725 228.12 107.725C235.409 107.725 241.318 101.804 241.318 94.4993C241.318 87.195 235.409 81.2737 228.12 81.2737C220.832 81.2737 214.923 87.195 214.923 94.4993Z" fill="#DEECF3"/>
<path d="M242.11 67.7836C242.11 75.0879 248.019 81.0092 255.307 81.0092C262.596 81.0092 268.505 75.0879 268.505 67.7836C268.505 60.4793 262.596 54.558 255.307 54.558C248.019 54.558 242.11 60.4793 242.11 67.7836Z" fill="#DEECF3"/>
<path d="M214.857 53.9628V67.453C214.857 74.9033 220.913 80.9431 228.384 80.9431C235.856 80.9431 241.912 74.9033 241.912 67.453C241.912 60.0026 235.856 53.9628 228.384 53.9628H214.857Z" fill="#CDD4ED"/>
<path d="M281.769 67.1885H309.22V94.6978H281.769V67.1885Z" fill="#F1E3CF"/>
<path d="M295.294 69.1537L283.46 81.0123L295.294 92.8709L307.127 81.0123L295.294 69.1537Z" fill="#CDD4ED"/>
<path d="M317.139 59.1208H300.906C300.906 68.1051 308.173 75.3884 317.139 75.3884V59.1208Z" fill="#97B0F6"/>
<path d="M317.139 102.633V86.3657C308.173 86.3657 300.906 93.6489 300.906 102.633H317.139Z" fill="#97B0F6"/>
<path d="M274.115 102.633H290.348C290.348 93.6489 283.08 86.3657 274.115 86.3657V102.633Z" fill="#97B0F6"/>
<path d="M274.115 59.1208V75.3884C283.08 75.3884 290.348 68.1051 290.348 59.1208H274.115Z" fill="#97B0F6"/>
<path d="M349.325 223.227L330.273 242.333L349.325 261.44L368.377 242.333L349.325 223.227Z" fill="#2D374C"/>
<path d="M356.109 235.53H342.541V249.136H356.109V235.53Z" fill="#CDD4ED"/>
<path d="M241.715 53.9628C256.547 53.9628 268.572 41.913 268.572 27.0487C268.572 12.1845 256.547 0.134609 241.715 0.134609H214.857V27.0487C214.857 41.913 226.882 53.9628 241.715 53.9628Z" fill="#F1E3CF"/>
<path d="M230.917 32.3234C239.787 32.3234 246.978 25.1177 246.978 16.229C246.978 7.34032 239.787 0.134628 230.917 0.134628H214.857V16.229C214.857 25.1177 222.047 32.3234 230.917 32.3234Z" fill="#2D374C"/>
<path d="M241.714 43.7516C250.77 43.7516 258.112 36.3946 258.112 27.3192C258.112 18.2438 250.77 10.8867 241.714 10.8867C232.658 10.8867 225.317 18.2438 225.317 27.3192C225.317 36.3946 232.658 43.7516 241.714 43.7516Z" fill="#CDD4ED"/>
<path d="M241.714 36.9386C247.015 36.9386 251.313 32.6318 251.313 27.3192C251.313 22.0065 247.015 17.6997 241.714 17.6997C236.413 17.6997 232.115 22.0065 232.115 27.3192C232.115 32.6318 236.413 36.9386 241.714 36.9386Z" fill="#2D374C"/>
<path d="M268.572 27.184V53.9629L295.294 53.9629C310.201 53.9629 322.286 41.8525 322.286 26.9135V0.134644L295.564 0.134644C280.656 0.134644 268.572 12.2451 268.572 27.184Z" fill="#CDD4ED"/>
<path d="M280.178 27.0487C280.178 35.788 287.248 42.8726 295.968 42.8726C304.689 42.8726 311.759 35.788 311.759 27.0487V11.2249L295.968 11.2249C287.248 11.2249 280.178 18.3094 280.178 27.0487Z" fill="#2D374C"/>
<path d="M268.571 43.3325V54.0981H279.314C288.214 54.0981 295.428 46.8682 295.428 37.9497V27.184H284.686C275.786 27.184 268.571 34.4139 268.571 43.3325Z" fill="#DEECF3"/>
<path d="M376 27.184V53.9629L349.278 53.9629C334.371 53.9629 322.286 41.8525 322.286 26.9135V0.134644L349.008 0.134644C363.915 0.134644 376 12.2451 376 27.184Z" fill="#97B0F6"/>
<path d="M364.393 27.0487C364.393 35.788 357.323 42.8726 348.603 42.8726C339.882 42.8726 332.812 35.788 332.812 27.0487V11.2249L348.603 11.2249C357.323 11.2249 364.393 18.3094 364.393 27.0487Z" fill="#2D374C"/>
<path d="M376 43.3325V54.0981H365.257C356.357 54.0981 349.143 46.8682 349.143 37.9497V27.184H359.885C368.785 27.184 376 34.4139 376 43.3325Z" fill="#DEECF3"/>
<path d="M349.143 161.619C334.31 161.619 322.286 173.669 322.286 188.533C322.286 203.398 334.31 215.448 349.143 215.448H376V188.533C376 173.669 363.976 161.619 349.143 161.619Z" fill="#F1E3CF"/>
<path d="M359.939 183.259C351.07 183.259 343.879 190.465 343.879 199.353C343.879 208.242 351.07 215.448 359.939 215.448H376V199.353C376 190.465 368.809 183.259 359.939 183.259Z" fill="#97B0F6"/>
<path d="M349.143 171.831C340.086 171.831 332.745 179.188 332.745 188.263C332.745 197.338 340.086 204.696 349.143 204.696C358.199 204.696 365.54 197.338 365.54 188.263C365.54 179.188 358.199 171.831 349.143 171.831Z" fill="#CDD4ED"/>
<path d="M349.143 178.644C343.841 178.644 339.544 182.95 339.544 188.263C339.544 193.576 343.841 197.882 349.143 197.882C354.444 197.882 358.742 193.576 358.742 188.263C358.742 182.95 354.444 178.644 349.143 178.644Z" fill="#2D374C"/>
<path d="M80.6372 157.244C93.1011 157.244 103.205 147.123 103.205 134.639C103.205 122.154 93.1011 112.034 80.6372 112.034C68.1733 112.034 58.0693 122.154 58.0693 134.639C58.0693 147.123 68.1733 157.244 80.6372 157.244Z" fill="#F1E3CF"/>
<path d="M107.429 107.791C107.429 122.582 95.4929 134.573 80.7695 134.573C80.7695 119.782 92.7052 107.791 107.429 107.791Z" fill="#97B0F6"/>
<path d="M80.3735 133.792V134.573H79.5971C65.3025 134.573 53.7144 122.931 53.7144 108.571V107.791H54.4909C68.7855 107.791 80.3735 119.432 80.3735 133.792Z" fill="#CDD4ED"/>
<path d="M79.597 134.838H80.3735V135.618C80.3735 149.978 68.7854 161.619 54.4908 161.619H53.7144V160.839C53.7144 146.479 65.3024 134.838 79.597 134.838Z" fill="#97B0F6"/>
<path d="M107.428 160.839V161.619H106.652C92.3572 161.619 80.7691 149.978 80.7691 135.618V134.838H81.5456C95.8402 134.838 107.428 146.479 107.428 160.839Z" fill="#CDD4ED"/>
<path d="M241.722 157.194C254.186 157.194 264.29 147.069 264.29 134.578C264.29 122.088 254.186 111.963 241.722 111.963C229.258 111.963 219.154 122.088 219.154 134.578C219.154 147.069 229.258 157.194 241.722 157.194Z" fill="#F1E3CF"/>
<path d="M240.932 161.619C226.531 161.619 214.857 149.92 214.857 135.489V134.705H215.639C230.04 134.705 241.714 146.404 241.714 160.835V161.619H240.932Z" fill="#97B0F6"/>
<path d="M267.789 134.705H268.571V135.489C268.571 149.92 256.897 161.619 242.496 161.619H241.714V160.835C241.714 146.404 253.388 134.705 267.789 134.705Z" fill="#CDD4ED"/>
<path d="M242.496 134.705H241.714V133.921C241.714 119.49 253.388 107.791 267.789 107.791H268.571V108.575C268.571 123.006 256.897 134.705 242.496 134.705Z" fill="#97B0F6"/>
<path d="M215.64 107.791C230.04 107.791 241.715 119.49 241.715 133.921V134.705H240.932C226.532 134.705 214.857 123.006 214.857 108.575V107.791H215.64Z" fill="#CDD4ED"/>
<path d="M4.41577 188.541C4.41577 201.032 14.5197 211.157 26.9836 211.157C39.4475 211.157 49.5515 201.032 49.5515 188.541C49.5515 176.051 39.4475 165.926 26.9836 165.926C14.5197 165.926 4.41577 176.051 4.41577 188.541Z" fill="#F1E3CF"/>
<path d="M8.96454e-05 187.75C8.96454e-05 173.318 11.6742 161.619 26.0749 161.619H26.8572V162.403C26.8572 176.835 15.1831 188.533 0.782335 188.533H8.96454e-05V187.75Z" fill="#97B0F6"/>
<path d="M26.8572 214.664V215.448H26.0749C11.6742 215.448 8.96454e-05 203.749 8.96454e-05 189.317V188.534H0.782335C15.1831 188.534 26.8572 200.232 26.8572 214.664Z" fill="#CDD4ED"/>
<path d="M26.8573 189.317V188.534H27.6395C42.0403 188.534 53.7144 200.232 53.7144 214.664V215.448H52.9321C38.5314 215.448 26.8573 203.749 26.8573 189.317Z" fill="#97B0F6"/>
<path d="M53.7141 162.403C53.7141 176.835 42.04 188.534 27.6393 188.534H26.857V187.75C26.857 173.318 38.5311 161.619 52.9319 161.619H53.7141V162.403Z" fill="#CDD4ED"/>
<path d="M161.143 0.134644V53.9629H107.429C107.429 24.2344 131.477 0.134644 161.143 0.134644Z" fill="#97B0F6"/>
<path d="M161.143 23.4117V53.9629H130.582C130.582 37.09 144.264 23.4117 161.143 23.4117Z" fill="#F1E3CF"/>
<path d="M161.143 39.9437V53.9629H147.119C147.119 46.2203 153.398 39.9437 161.143 39.9437Z" fill="#2D374C"/>
<path d="M376 161.619H322.286V107.791C351.951 107.791 376 131.891 376 161.619Z" fill="#97B0F6"/>
<path d="M352.772 161.619H322.286V130.993C339.123 130.993 352.772 144.705 352.772 161.619Z" fill="#F1E3CF"/>
<path d="M336.275 161.619H322.286V147.566C330.012 147.566 336.275 153.858 336.275 161.619Z" fill="#2D374C"/>
<path d="M0.000179291 161.619L0.000179291 107.791H53.7144C53.7144 137.52 29.6657 161.619 0.000179291 161.619Z" fill="#CDD4ED"/>
<path d="M-9.91821e-05 138.418L-9.91821e-05 107.791H30.4863C30.4863 124.706 16.8371 138.418 -9.91821e-05 138.418Z" fill="#F1E3CF"/>
<path d="M5.72205e-05 121.845L5.72205e-05 107.791H13.9895C13.9895 115.553 7.72621 121.845 5.72205e-05 121.845Z" fill="#2D374C"/>
<path d="M322.285 107.791V161.619H268.571C268.571 131.891 292.62 107.791 322.285 107.791Z" fill="#CDD4ED"/>
<path d="M322.286 130.993V161.619H291.799C291.799 144.705 305.449 130.993 322.286 130.993Z" fill="#F1E3CF"/>
<path d="M322.286 147.566V161.619H308.296C308.296 153.858 314.56 147.566 322.286 147.566Z" fill="#2D374C"/>
<path d="M26.9914 0.134338C41.8241 0.134338 53.8484 12.1842 53.8484 27.0485C53.8484 41.9127 41.8241 53.9626 26.9914 53.9626C12.1586 53.9626 0.134277 41.9127 0.134277 27.0485C0.134277 12.1842 12.1586 0.134338 26.9914 0.134338Z" fill="#CDD4ED"/>
<path d="M27.1238 10.9796C36.0526 10.9796 43.2909 18.2332 43.2909 27.181C43.2909 36.1288 36.0526 43.3824 27.1238 43.3824C18.195 43.3824 10.9568 36.1288 10.9568 27.181C10.9568 18.2332 18.195 10.9796 27.1238 10.9796Z" fill="#F1E3CF"/>
<path d="M27.3878 18.7827C32.162 18.7827 36.0323 22.6612 36.0323 27.4455C36.0323 32.2298 32.162 36.1083 27.3878 36.1083C22.6136 36.1083 18.7434 32.2298 18.7434 27.4455C18.7434 22.6612 22.6136 18.7827 27.3878 18.7827Z" fill="#2D374C"/>
<path d="M53.849 21.2957L53.849 53.9629L21.251 53.9629C21.251 35.9213 35.8456 21.2957 53.849 21.2957Z" fill="#97B0F6"/>
<path d="M295.428 215.448C310.261 215.448 322.285 227.497 322.285 242.362C322.285 257.226 310.261 269.276 295.428 269.276C280.596 269.276 268.571 257.226 268.571 242.362C268.571 227.497 280.596 215.448 295.428 215.448Z" fill="#CDD4ED"/>
<path d="M295.561 226.293C304.489 226.293 311.728 233.546 311.728 242.494C311.728 251.442 304.489 258.695 295.561 258.695C286.632 258.695 279.394 251.442 279.394 242.494C279.394 233.546 286.632 226.293 295.561 226.293Z" fill="#F1E3CF"/>
<path d="M295.824 234.096C300.599 234.096 304.469 237.974 304.469 242.758C304.469 247.543 300.599 251.421 295.824 251.421C291.05 251.421 287.18 247.543 287.18 242.758C287.18 237.974 291.05 234.096 295.824 234.096Z" fill="#2D374C"/>
<path d="M322.286 236.609V269.276H289.688C289.688 251.234 304.282 236.609 322.286 236.609Z" fill="#97B0F6"/>
<path d="M67.0468 26.4512C59.758 26.4512 53.8492 20.5299 53.8492 13.2256C53.8492 5.92126 59.758 -4.57764e-05 67.0468 -4.57764e-05C74.3356 -4.57764e-05 80.2444 5.92126 80.2444 13.2256C80.2444 20.5299 74.3356 26.4512 67.0468 26.4512Z" fill="#DEECF3"/>
<path d="M67.0468 53.8282C59.758 53.8282 53.8492 47.9069 53.8492 40.6026C53.8492 33.2983 59.758 27.377 67.0468 27.377C74.3356 27.377 80.2444 33.2983 80.2444 40.6026C80.2444 47.9069 74.3356 53.8282 67.0468 53.8282Z" fill="#97B0F6"/>
<path d="M93.8378 26.4512C86.549 26.4512 80.6402 20.5299 80.6402 13.2256C80.6402 5.92126 86.549 -4.57764e-05 93.8378 -4.57764e-05C101.127 -4.57764e-05 107.035 5.92126 107.035 13.2256C107.035 20.5299 101.127 26.4512 93.8378 26.4512Z" fill="#97B0F6"/>
<path d="M107.563 53.8282H94.0357C86.5646 53.8282 80.5082 47.7589 80.5082 40.272C80.5082 32.7851 86.5646 26.7157 94.0357 26.7157C101.507 26.7157 107.563 32.7851 107.563 40.272V53.8282Z" fill="#CDD4ED"/>
<path d="M134.682 174.911C134.682 167.607 140.591 161.685 147.879 161.685C155.168 161.685 161.077 167.607 161.077 174.911C161.077 182.215 155.168 188.137 147.879 188.137C140.591 188.137 134.682 182.215 134.682 174.911Z" fill="#97B0F6"/>
<path d="M107.495 174.911C107.495 167.607 113.403 161.685 120.692 161.685C127.981 161.685 133.89 167.607 133.89 174.911C133.89 182.215 127.981 188.137 120.692 188.137C113.403 188.137 107.495 182.215 107.495 174.911Z" fill="#DEECF3"/>
<path d="M134.682 201.627C134.682 194.323 140.591 188.401 147.879 188.401C155.168 188.401 161.077 194.323 161.077 201.627C161.077 208.931 155.168 214.852 147.879 214.852C140.591 214.852 134.682 208.931 134.682 201.627Z" fill="#DEECF3"/>
<path d="M107.429 215.448V201.957C107.429 194.507 113.485 188.467 120.956 188.467C128.427 188.467 134.484 194.507 134.484 201.957C134.484 209.408 128.427 215.448 120.956 215.448H107.429Z" fill="#CDD4ED"/>
<path d="M13.1977 241.899C5.90885 241.899 8.96454e-05 235.977 8.96454e-05 228.673C8.96454e-05 221.369 5.90885 215.448 13.1977 215.448C20.4865 215.448 26.3953 221.369 26.3953 228.673C26.3953 235.977 20.4865 241.899 13.1977 241.899Z" fill="#97B0F6"/>
<path d="M13.1977 269.276C5.90885 269.276 8.96454e-05 263.354 8.96454e-05 256.05C8.96454e-05 248.746 5.90885 242.824 13.1977 242.824C20.4865 242.824 26.3953 248.746 26.3953 256.05C26.3953 263.354 20.4865 269.276 13.1977 269.276Z" fill="#DEECF3"/>
<path d="M39.9889 241.899C32.7001 241.899 26.7913 235.977 26.7913 228.673C26.7913 221.369 32.7001 215.448 39.9889 215.448C47.2778 215.448 53.1865 221.369 53.1865 228.673C53.1865 235.977 47.2778 241.899 39.9889 241.899Z" fill="#DEECF3"/>
<path d="M53.7144 269.276H40.1868C32.7158 269.276 26.6593 263.206 26.6593 255.719C26.6593 248.233 32.7158 242.163 40.1868 242.163C47.6579 242.163 53.7144 248.233 53.7144 255.719V269.276Z" fill="#CDD4ED"/>
<path d="M174.341 202.222H201.792V174.713H174.341V202.222Z" fill="#F1E3CF"/>
<path d="M187.865 200.257L176.032 188.398L187.865 176.54L199.699 188.398L187.865 200.257Z" fill="#CDD4ED"/>
<path d="M209.71 210.29H193.477C193.477 201.305 200.745 194.022 209.71 194.022V210.29Z" fill="#97B0F6"/>
<path d="M209.71 166.777V183.045C200.745 183.045 193.477 175.761 193.477 166.777H209.71Z" fill="#97B0F6"/>
<path d="M166.686 166.777H182.919C182.919 175.761 175.651 183.045 166.686 183.045V166.777Z" fill="#97B0F6"/>
<path d="M166.686 210.289V194.022C175.651 194.022 182.919 201.305 182.919 210.289H166.686Z" fill="#97B0F6"/>
<path d="M27.0405 100.012L7.98844 80.9055L27.0405 61.799L46.0926 80.9055L27.0405 100.012Z" fill="#DEECF3"/>
<path d="M27.0405 90.5264L17.4471 80.9056L27.0405 71.2848L36.6339 80.9056L27.0405 90.5264Z" fill="#F1E3CF"/>
<path d="M168.7 24.7495L185.436 24.7495V7.97885L168.7 7.97885V24.7495Z" fill="#F1E3CF"/>
<path d="M168.7 45.848H185.436V29.0774L168.7 29.0774V45.848Z" fill="#F1E3CF"/>
<path d="M190.294 24.7495L207.03 24.7495V7.97885L190.294 7.97885V24.7495Z" fill="#F1E3CF"/>
<path d="M190.294 45.848H207.029V29.0774L190.294 29.0774V45.848Z" fill="#F1E3CF"/>
<path d="M173.019 20.1512H180.847V12.3069H173.019V20.1512Z" fill="#2D374C"/>
<path d="M173.019 41.2497H180.847V33.4054H173.019V41.2497Z" fill="#2D374C"/>
<path d="M194.613 20.1512H202.441V12.3069H194.613V20.1512Z" fill="#2D374C"/>
<path d="M194.613 41.2497H202.441V33.4054H194.613V41.2497Z" fill="#2D374C"/>
<path d="M134.603 153.84L115.551 134.734L134.603 115.627L153.655 134.734L134.603 153.84Z" fill="#2D374C"/>
<path d="M141.386 141.536H127.819V127.931H141.386V141.536Z" fill="#CDD4ED"/>
<path d="M134.286 215.448C149.119 215.448 161.143 227.497 161.143 242.362C161.143 257.226 149.119 269.276 134.286 269.276H107.429L107.429 242.362C107.429 227.497 119.453 215.448 134.286 215.448Z" fill="#F1E3CF"/>
<path d="M123.489 237.087C132.359 237.087 139.549 244.293 139.549 253.181C139.549 262.07 132.359 269.276 123.489 269.276H107.429L107.429 253.181C107.429 244.293 114.619 237.087 123.489 237.087Z" fill="#2D374C"/>
<path d="M134.286 225.659C143.342 225.659 150.684 233.016 150.684 242.091C150.684 251.167 143.342 258.524 134.286 258.524C125.23 258.524 117.888 251.167 117.888 242.091C117.888 233.016 125.23 225.659 134.286 225.659Z" fill="#CDD4ED"/>
<path d="M134.286 232.472C139.587 232.472 143.885 236.778 143.885 242.091C143.885 247.404 139.587 251.711 134.286 251.711C128.984 251.711 124.687 247.404 124.687 242.091C124.687 236.778 128.984 232.472 134.286 232.472Z" fill="#2D374C"/>
<path d="M80.5714 161.619H107.429V188.533C107.429 203.398 95.4042 215.448 80.5714 215.448H53.7144L53.7144 188.533C53.7144 173.669 65.7387 161.619 80.5714 161.619Z" fill="#CDD4ED"/>
<path d="M80.5713 173.251C89.2921 173.251 96.3617 180.335 96.3617 189.074C96.3617 197.814 89.2921 204.898 80.5713 204.898H64.781L64.781 189.074C64.781 180.335 71.8506 173.251 80.5713 173.251Z" fill="#2D374C"/>
<path d="M96.8206 161.619H107.563V172.385C107.563 181.304 100.349 188.533 91.4491 188.533H80.7063V177.768C80.7063 168.849 87.9209 161.619 96.8206 161.619Z" fill="#F1E3CF"/>
<path d="M161.144 242.226V215.447H187.866C202.773 215.447 214.858 227.558 214.858 242.497V269.276H188.136C173.228 269.276 161.144 257.165 161.144 242.226Z" fill="#CDD4ED"/>
<path d="M172.75 242.362C172.75 233.622 179.819 226.538 188.54 226.538C197.261 226.538 204.33 233.622 204.33 242.362V258.185H188.54C179.819 258.185 172.75 251.101 172.75 242.362Z" fill="#2D374C"/>
<path d="M161.143 226.078V215.312H171.886C180.786 215.312 188 222.542 188 231.461V242.226H177.257C168.358 242.226 161.143 234.996 161.143 226.078Z" fill="#DEECF3"/>
<path d="M188 161.619C173.167 161.619 161.143 149.57 161.143 134.705C161.143 119.841 173.167 107.791 188 107.791H214.857V134.705C214.857 149.57 202.833 161.619 188 161.619Z" fill="#F1E3CF"/>
<path d="M198.796 139.98C189.927 139.98 182.736 132.774 182.736 123.886C182.736 114.997 189.927 107.791 198.796 107.791H214.857V123.886C214.857 132.774 207.666 139.98 198.796 139.98Z" fill="#97B0F6"/>
<path d="M188 151.408C178.944 151.408 171.602 144.051 171.602 134.976C171.602 125.9 178.944 118.543 188 118.543C197.056 118.543 204.398 125.9 204.398 134.976C204.398 144.051 197.056 151.408 188 151.408Z" fill="#CDD4ED"/>
<path d="M188 144.595C182.699 144.595 178.401 140.288 178.401 134.976C178.401 129.663 182.699 125.356 188 125.356C193.301 125.356 197.599 129.663 197.599 134.976C197.599 140.288 193.301 144.595 188 144.595Z" fill="#2D374C"/>
<path d="M349.209 103.416C361.673 103.416 371.777 93.2951 371.777 80.8106C371.777 68.3261 361.673 58.2054 349.209 58.2054C336.745 58.2054 326.641 68.3261 326.641 80.8106C326.641 93.2951 336.745 103.416 349.209 103.416Z" fill="#F1E3CF"/>
<path d="M376 53.9628C376 68.7538 364.065 80.7443 349.341 80.7443C349.341 65.9533 361.277 53.9628 376 53.9628Z" fill="#97B0F6"/>
<path d="M348.945 79.9643V80.7443H348.168C333.874 80.7443 322.286 69.103 322.286 54.7428V53.9628H323.062C337.357 53.9628 348.945 65.604 348.945 79.9643Z" fill="#CDD4ED"/>
<path d="M348.169 81.0095H348.945V81.7895C348.945 96.1497 337.357 107.791 323.062 107.791H322.286V107.011C322.286 92.6507 333.874 81.0095 348.169 81.0095Z" fill="#97B0F6"/>
<path d="M376 107.011V107.791H375.224C360.929 107.791 349.341 96.1497 349.341 81.7895V81.0095H350.117C364.412 81.0095 376 92.6507 376 107.011Z" fill="#CDD4ED"/>
<path d="M120.723 53.9628H147.849L134.286 67.5545L120.723 53.9628Z" fill="#DEECF3"/>
<path d="M161.143 53.9628V107.791H107.429L161.143 53.9628Z" fill="#CDD4ED"/>
<path d="M107.429 53.9628L161.143 107.791H107.429V53.9628Z" fill="#F1E3CF"/>
<path d="M94.1342 269.276H67.0085L80.5714 255.684L94.1342 269.276Z" fill="#CDD4ED"/>
<path d="M53.7144 269.276L53.7144 215.448H107.429L53.7144 269.276Z" fill="#F1E3CF"/>
<path d="M107.429 269.276L53.7144 215.448H107.429V269.276Z" fill="#97B0F6"/>
<path d="M255.411 215.448H228.286L241.849 201.856L255.411 215.448Z" fill="#DEECF3"/>
<path d="M214.991 215.448V161.619H268.706L214.991 215.448Z" fill="#CDD4ED"/>
<path d="M268.706 215.448L214.991 161.619H268.706V215.448Z" fill="#F1E3CF"/>
<path d="M228.286 215.448H255.411L241.848 229.039L228.286 215.448Z" fill="#DEECF3"/>
<path d="M268.706 215.448V269.276H214.991L268.706 215.448Z" fill="#CDD4ED"/>
<path d="M214.991 215.448L268.706 269.276H214.991V215.448Z" fill="#F1E3CF"/>
</g>
</svg>
