
<svg height="22pt" viewBox="-6 0 512 512" width="22pt" xmlns="http://www.w3.org/2000/svg"><path d="m84.613281 435.5c-8.707031.667969-17.226562-2.792969-22.964843-9.371094-38.386719-44-61.648438-101.53125-61.648438-164.507812 0-138.28125 112.097656-250.378906 250.378906-250.378906 138.652344 0 251.359375 113.542968 250.375 252.191406-.441406 62.203125-23.578125 119.003906-61.527344 162.5625-5.773437 6.628906-14.3125 10.175781-23.082031 9.5-53.296875-4.101563-108.78125-6.273438-165.765625-6.273438s-112.46875 2.171875-165.765625 6.277344zm0 0" fill="#fdcb6b"/><path d="m297.390625 311.695312c0 14.113282-21.046875 25.550782-47.011719 25.550782-25.960937 0-47.007812-11.4375-47.007812-25.550782 0-14.109374 21.046875-25.546874 47.007812-25.546874 25.964844 0 47.011719 11.4375 47.011719 25.546874zm0 0" fill="#0db2cc"/><path d="m299.609375 296.367188h-98.457031c-81.839844 0-148.183594-66.34375-148.183594-148.183594s66.34375-148.183594 148.183594-148.183594h98.457031c81.835937 0 148.183594 66.34375 148.183594 148.183594-.003907 81.839844-66.347657 148.183594-148.183594 148.183594zm139.753906 129.492187c-20.332031-57.574219-75.222656-98.832031-139.753906-98.832031h-98.457031c-64.535156 0-119.425782 41.257812-139.757813 98.832031 6.816407 7.832031 14.109375 15.238281 21.835938 22.171875 44.320312 39.773438 310.230469 30.601562 356.132812-22.171875zm0 0" fill="#02c6dc"/><path d="m299.609375 296.367188h-70.691406c-81.839844 0-148.183594-66.34375-148.183594-148.183594s66.34375-148.183594 148.183594-148.183594h70.691406c81.835937 0 148.183594 66.34375 148.183594 148.183594s-66.347657 148.183594-148.183594 148.183594zm52.96875 193.890624c33.460937-14.980468 63.03125-37.09375 86.785156-64.398437-20.332031-57.574219-75.222656-98.832031-139.753906-98.832031h-70.691406c-72.550781 0-132.917969 52.140625-145.6875 120.996094 19.207031 17.234374 41.089843 31.542968 64.953125 42.230468 31.203125 13.972656 173.1875 13.976563 204.394531.003906zm0 0" fill="#2fcbe0"/><path d="m219.71875 255.488281h61.320312c0 11.289063-13.726562 20.441407-30.660156 20.441407s-30.660156-9.152344-30.660156-20.441407zm0 0" fill="#0198b0"/><path d="m389.367188 224.832031h-277.972657c-45.15625 0-81.757812-36.605469-81.757812-81.757812 0-45.152344 36.601562-81.757813 81.757812-81.757813h277.972657c45.152343 0 81.753906 36.605469 81.753906 81.757813 0 45.152343-36.601563 81.757812-81.753906 81.757812zm0 0" fill="#0573cd"/><path d="m389.367188 224.832031h-216.65625c-45.152344 0-81.757813-36.605469-81.757813-81.757812 0-45.152344 36.605469-81.757813 81.757813-81.757813h216.65625c45.152343 0 81.753906 36.605469 81.753906 81.757813 0 45.152343-36.601563 81.757812-81.753906 81.757812zm0 0" fill="#528ed7"/><path d="m234.027344 143.074219c0 11.289062-9.148438 20.4375-20.4375 20.4375-11.289063 0-20.441406-9.148438-20.441406-20.4375 0-11.289063 9.152343-20.441407 20.441406-20.441407 11.289062 0 20.4375 9.152344 20.4375 20.441407zm-86.867188-35.769531c-19.753906 0-35.765625 16.015624-35.765625 35.769531 0 19.753906 16.011719 35.769531 35.765625 35.769531 19.757813 0 35.769532-16.015625 35.769532-35.769531 0-19.753907-16.011719-35.769531-35.769532-35.769531zm-66.425781 15.328124c-11.289063 0-20.4375 9.152344-20.4375 20.441407 0 11.289062 9.148437 20.4375 20.4375 20.4375s20.4375-9.148438 20.4375-20.4375c0-11.289063-9.148437-20.441407-20.4375-20.441407zm194.171875 0c-11.289062 0-20.4375 9.152344-20.4375 20.441407 0 11.289062 9.148438 20.4375 20.4375 20.4375s20.4375-9.148438 20.4375-20.4375c0-11.289063-9.148438-20.441407-20.4375-20.441407zm132.855469 0c-11.289063 0-20.441407 9.152344-20.441407 20.441407 0 11.289062 9.152344 20.4375 20.441407 20.4375 11.289062 0 20.4375-9.148438 20.4375-20.4375 0-11.289063-9.148438-20.441407-20.4375-20.441407zm-66.429688-15.328124c-19.753906 0-35.765625 16.015624-35.765625 35.769531 0 19.753906 16.011719 35.769531 35.765625 35.769531 19.753907 0 35.769531-16.015625 35.769531-35.769531 0-19.753907-16.015624-35.769531-35.769531-35.769531zm0 0" fill="#03bdd6"/><path d="m162.492188 143.074219c0 8.464843-6.863282 15.328125-15.332032 15.328125-8.464844 0-15.328125-6.863282-15.328125-15.328125 0-8.464844 6.863281-15.328125 15.328125-15.328125 8.46875 0 15.332032 6.863281 15.332032 15.328125zm178.839843-15.328125c-8.464843 0-15.328125 6.863281-15.328125 15.328125 0 8.464843 6.863282 15.328125 15.328125 15.328125 8.46875 0 15.332031-6.863282 15.332031-15.328125 0-8.464844-6.863281-15.328125-15.332031-15.328125zm0 0" fill="#aef7ff"/><path d="m352.574219 408.78125v81.46875c-31.207031 13.972656-155.414063 17.433594-179.867188 9.460938-8.375-2.734376-16.558593-5.894532-24.523437-9.460938v-81.46875c0-16.929688 13.726562-30.65625 30.660156-30.65625h143.074219c16.929687 0 30.65625 13.726562 30.65625 30.65625zm0 0" fill="#aef7ff"/><path d="m352.574219 408.78125v81.46875c-11.488281 5.144531-23.4375 9.449219-35.765625 12.835938-5.046875 1.386718-25.496094 5.636718-30.65625 6.375-6.730469.964843-13.550782 1.660156-20.441406 2.078124-5.074219.304688-25.589844.304688-30.660157-.003906-6.894531-.417968-13.710937-1.113281-20.441406-2.078125-5.6875-.816406-10.410156-2.90625-15.964844-4.097656-4.644531-.996094-10.148437-1.035156-14.691406-2.28125-3.785156-1.042969-7.53125-2.167969-11.242187-3.375v-90.921875c0-16.929688 13.726562-30.65625 30.660156-30.65625h118.546875c16.929687 0 30.65625 13.726562 30.65625 30.65625zm0 0" fill="#d2fcff"/><path d="m214.609375 454.769531v54.695313c-10.441406-1.496094-20.671875-3.632813-30.65625-6.371094v-48.324219c0-2.820312 2.289063-5.109375 5.109375-5.109375h20.4375c2.824219 0 5.109375 2.289063 5.109375 5.109375zm0 0" fill="#0ed1b2"/><path d="m316.804688 403.671875v99.421875c-9.984376 2.742188-20.214844 4.875-30.65625 6.367188v-105.789063c0-2.820313 2.289062-5.109375 5.109374-5.109375h20.4375c2.824219 0 5.109376 2.289062 5.109376 5.109375zm0 0" fill="#8cf4e0"/><path d="m265.707031 426.15625v85.382812c-5.070312.304688-10.179687.460938-15.328125.460938-5.148437 0-10.257812-.15625-15.328125-.464844v-85.378906c0-2.820312 2.289063-5.109375 5.109375-5.109375h20.4375c2.824219 0 5.109375 2.289063 5.109375 5.109375zm0 0" fill="#5de0c3"/></svg>