<svg id="Layer_1" enable-background="new 0 0 512 512" height="512" viewBox="0 0 512 512" width="512" xmlns="http://www.w3.org/2000/svg"><g><g><g><g><path d="m234.01 504.5h-91.29c-2.61-23.46 0-49.79 0-49.79-77.41-54.569-135.22-119.629-135.22-119.629 5.83-96.689 5.89-97.6.17-185.089-.06-.85-.11-1.71-.17-2.58 54.1 0 54.13 34.01 54.13 146.739l27.72 25.29h.01c32.21-24.06 58.5 5.24 144.09 79.74 0 0 4.9 48.34.56 105.319z" fill="#ffe6c7"/><path d="m234.01 504.5h-27.67c1.62-52.97-2.55-93.58-2.55-93.58-54.21-61.17-87.33-83.04-127.6-79.2l13.16-12.28h.01c32.21-24.06 58.5 5.24 144.09 79.74 0 .001 4.9 48.341.56 105.32z" fill="#ffd5b0"/><path d="m97.517 314.441c3.161-58.386 12.957-134.643-42.296-134.643h-19.219v134.417z" fill="#ffe6c7"/><path d="m89.35 319.441c-62.63 4.68-53.48-41.84-53.48-72.54 0-58.64-6.47-87.5-28.2-96.909-.06-.85-.11-1.71-.17-2.58 54.1 0 54.13 34.01 54.13 146.739z" fill="#ffd5b0"/></g><g><path d="m277.987 504.5h91.29c2.61-23.46 0-49.79 0-49.79 77.41-54.57 135.22-119.629 135.22-119.629-5.83-96.689-5.89-97.6-.17-185.089.06-.85.11-1.71.17-2.58-54.1 0-54.13 34.01-54.13 146.739l-27.72 25.29h-.01c-32.21-24.06-58.5 5.24-144.09 79.74 0 0-4.9 48.34-.56 105.319z" fill="#ffe6c7"/><path d="m277.987 504.5h27.67c-1.62-52.97 2.55-93.58 2.55-93.58 54.21-61.17 87.33-83.04 127.6-79.2l-13.16-12.28h-.01c-32.21-24.06-58.5 5.24-144.09 79.74 0 .001-4.9 48.341-.56 105.32z" fill="#ffd5b0"/><path d="m414.479 314.441c-3.161-58.386-12.957-134.643 42.296-134.643h19.219v134.417z" fill="#ffe6c7"/><path d="m422.647 319.441c62.63 4.68 53.48-41.84 53.48-72.54 0-58.64 6.47-87.5 28.2-96.909.06-.85.11-1.71.17-2.58-54.1 0-54.13 34.01-54.13 146.739z" fill="#ffd5b0"/></g></g></g><g><g><path d="m394.299 145.227c0 76.1-61.71 137.79-137.82 137.79-4.21 0-8.38-.19-12.5-.56-70.26-6.31-125.32-65.34-125.32-137.23 0-71.9 55.06-130.93 125.32-137.24 4.12-.37 8.29-.56 12.5-.56 76.11 0 137.82 61.69 137.82 137.8z" fill="#fff18d"/><path d="m394.299 145.227c0 76.1-61.71 137.79-137.82 137.79-4.21 0-8.38-.19-12.5-.56 70.25-6.31 125.32-65.34 125.32-137.23 0-71.9-55.07-130.93-125.32-137.24 4.12-.37 8.29-.56 12.5-.56 76.11 0 137.82 61.69 137.82 137.8z" fill="#ffd366"/></g><path d="m352.829 145.227c0 53.2-43.14 96.33-96.35 96.33-4.93 0-9.77-.37-14.5-1.09-46.33-6.99-81.85-46.97-81.85-95.24 0-48.28 35.52-88.25 81.85-95.24 4.73-.72 9.57-1.09 14.5-1.09 53.21 0 96.35 43.12 96.35 96.33z" fill="#ffd366"/><path d="m352.829 145.227c0 53.2-43.14 96.33-96.35 96.33-4.93 0-9.77-.37-14.5-1.09 46.33-6.99 81.85-46.97 81.85-95.24 0-48.28-35.52-88.25-81.85-95.24 4.73-.72 9.57-1.09 14.5-1.09 53.21 0 96.35 43.12 96.35 96.33z" fill="#ffaf5f"/></g></g><g><path d="m392.709 428.069c-9.294 7.229-18.63 14.149-27.75 20.569-2.211 1.557-3.413 4.184-3.146 6.874.025.256 2.506 25.774.01 48.155-.459 4.116 2.505 7.825 6.622 8.285.283.031.563.047.841.047 3.77-.001 7.017-2.836 7.444-6.67 2.059-18.456 1.014-38.293.377-46.916 8.189-5.843 16.519-12.055 24.811-18.505 3.27-2.543 3.859-7.255 1.315-10.524-2.542-3.27-7.254-3.859-10.524-1.315z"/><path d="m511.986 334.841c-5.792-95.871-.061-185.593-.002-186.488.136-2.07-.592-4.104-2.01-5.617s-3.399-2.373-5.474-2.373c-29.001 0-45.168 9.798-53.289 32.588-11.861 1.058-21.619 5.586-29.063 13.501-21.868 23.255-18.9 71.487-16.282 114.042.078 1.268.156 2.531.232 3.79-7.681-1.123-15.59.18-24.21 3.758-20.209 8.387-43.85 29.141-83.017 63.527-7.96 6.989-16.191 14.216-25.239 22.081-1.439 1.252-2.348 3.005-2.541 4.903-.203 1.998-4.917 49.595-.58 106.515.3 3.936 3.587 6.93 7.471 6.93.191 0 .384-.007.578-.021 4.13-.314 7.223-3.918 6.909-8.049-3.634-47.691-.658-89.725.285-100.941 8.185-7.126 15.713-13.735 23.014-20.146 73.079-64.159 89.627-77.21 116.245-51.307-10.404 9.245-33.704 29.679-60.117 51.092-3.218 2.608-3.711 7.332-1.103 10.549 2.609 3.219 7.333 3.711 10.549 1.104 35.956-29.149 66.205-56.511 66.506-56.783 1.478-1.339 2.362-3.212 2.457-5.204s-.609-3.94-1.955-5.413c-2.479-2.714-4.911-5.179-7.309-7.4l21.381-19.52c1.557-1.421 2.443-3.432 2.443-5.539 0-55.281 0-91.802 6.464-113.344 5.023-16.74 13.79-23.951 32.221-25.423-1.25 24.229-4.283 98.214.276 176.932-7.739 8.434-36.574 39.131-76.616 73.114-3.158 2.68-3.545 7.413-.865 10.57 1.483 1.749 3.596 2.647 5.722 2.647 1.715 0 3.439-.585 4.849-1.782 47.653-40.442 79.867-76.498 80.187-76.857 1.326-1.489 2.003-3.446 1.883-5.436zm-69.121-43.729-20.908 19.088c-.166-.1-.331-.198-.496-.295-.197-3.399-.409-6.849-.623-10.332-2.432-39.521-5.188-84.314 12.238-102.846 3.762-4 8.412-6.646 14.077-7.984-4.188 23.149-4.285 56.244-4.288 102.369z"/><path d="m238.367 393.651c-9.046-7.864-17.276-15.09-25.235-22.077-9.906-8.696-19.262-16.91-27.601-24.063-3.146-2.696-7.879-2.334-10.576.811s-2.334 7.879.81 10.576c8.274 7.096 17.17 14.906 27.47 23.949 7.3 6.409 14.828 13.017 23.011 20.142.943 11.216 3.919 53.25.285 100.941-.314 4.131 2.778 7.734 6.909 8.049.194.015.386.021.578.021 3.883 0 7.17-2.994 7.471-6.93 4.337-56.92-.377-104.517-.581-106.515-.193-1.899-1.101-3.652-2.541-4.904z"/><path d="m155.991 323.558c-20.254-14.923-35.884-21.374-50.354-19.219.086-1.393.173-2.792.26-4.197 2.638-42.442 5.628-90.548-16.157-113.729-7.413-7.887-17.133-12.402-28.951-13.461-8.12-22.791-24.288-32.59-53.289-32.59-4.142 0-7.5 3.357-7.5 7.5 0 .17.006.338.017.505 5.858 89.446 5.858 89.446-.003 186.473-.12 1.99.557 3.947 1.883 5.438.575.646 57.503 64.269 132.996 118.135-.637 8.622-1.682 28.46.377 46.916.428 3.835 3.675 6.67 7.444 6.67.278 0 .559-.016.841-.047 4.117-.46 7.082-4.169 6.622-8.285-2.491-22.331-.016-47.9.01-48.156.266-2.69-.936-5.316-3.146-6.873-67.697-47.661-120.896-104.113-131.864-116.05 5.545-91.801 5.662-95.627.349-176.927 18.378 1.485 27.128 8.699 32.144 25.416 6.464 21.542 6.464 58.063 6.464 113.344 0 2.107.887 4.118 2.443 5.539l21.375 19.515c-2.399 2.228-4.828 4.696-7.303 7.405-1.345 1.472-2.049 3.421-1.955 5.413s.979 3.865 2.457 5.204c.301.272 30.55 27.634 66.506 56.783 1.39 1.126 3.059 1.674 4.719 1.674 2.183 0 4.348-.948 5.831-2.777 2.608-3.217 2.115-7.94-1.103-10.549-26.402-21.404-49.694-41.83-60.105-51.08 8.89-8.589 16.244-12.423 23.829-12.599 9.137-.222 20.314 4.935 36.265 16.686 3.335 2.456 8.029 1.746 10.487-1.59 2.458-3.335 1.746-8.03-1.589-10.487zm-65.065-24.347c-.227 3.652-.452 7.267-.659 10.826-.081.048-.162.097-.243.146l-20.889-19.071c-.002-46.12-.1-79.213-4.287-102.361 5.618 1.336 10.23 3.965 13.961 7.936 17.342 18.452 14.566 63.117 12.117 102.524z"/><path d="m173.621 177.339c-1.5-3.861-5.845-5.775-9.707-4.275-3.861 1.5-5.775 5.846-4.275 9.707 7.495 19.293 20.47 35.771 37.523 47.649 17.456 12.159 37.968 18.587 59.319 18.587 57.262 0 103.848-46.556 103.848-103.781 0-57.226-46.586-103.781-103.848-103.781s-103.848 46.556-103.848 103.781c0 4.143 3.358 7.5 7.5 7.5s7.5-3.357 7.5-7.5c0-48.954 39.857-88.781 88.848-88.781s88.848 39.827 88.848 88.781-39.857 88.781-88.848 88.781c-18.27 0-35.818-5.496-50.746-15.896-14.598-10.168-25.703-24.267-32.114-40.772z"/><path d="m401.803 145.226c0-30.749-9.497-60.135-27.465-84.979-2.427-3.356-7.117-4.111-10.472-1.683-3.356 2.427-4.109 7.116-1.682 10.472 16.106 22.271 24.619 48.618 24.619 76.19 0 71.807-58.462 130.226-130.322 130.226s-130.322-58.419-130.322-130.226 58.462-130.226 130.322-130.226c30.333 0 59.87 10.641 83.17 29.963 3.188 2.645 7.917 2.204 10.561-.986 2.645-3.188 2.203-7.916-.985-10.561-25.986-21.549-58.924-33.416-92.746-33.416-80.131 0-145.322 65.148-145.322 145.226s65.191 145.226 145.322 145.226 145.322-65.148 145.322-145.226z"/><path d="m256.481 182.507c-8.219 0-14.906-6.68-14.906-14.89 0-4.143-3.358-7.5-7.5-7.5s-7.5 3.357-7.5 7.5c0 13.893 9.534 25.604 22.406 28.939v10.244c0 4.143 3.358 7.5 7.5 7.5s7.5-3.357 7.5-7.5v-10.245c12.872-3.335 22.406-15.045 22.406-28.939 0-16.481-13.416-29.891-29.906-29.891-8.219 0-14.906-6.68-14.906-14.891s6.687-14.891 14.906-14.891 14.906 6.68 14.906 14.891c0 4.143 3.358 7.5 7.5 7.5s7.5-3.357 7.5-7.5c0-13.894-9.534-25.604-22.406-28.939v-10.243c0-4.143-3.358-7.5-7.5-7.5s-7.5 3.357-7.5 7.5v10.245c-12.872 3.335-22.406 15.045-22.406 28.939 0 16.481 13.416 29.891 29.906 29.891 8.219 0 14.906 6.68 14.906 14.891 0 8.21-6.687 14.889-14.906 14.889z"/></g></svg>